<?xml version="1.0" encoding="utf-8"?>
<!-- Generator: Adobe Illustrator 25.2.1, SVG Export Plug-In . SVG Version: 6.00 Build 0)  -->
<svg version="1.1" id="Layer_1" xmlns="http://www.w3.org/2000/svg" xmlns:xlink="http://www.w3.org/1999/xlink" x="0px" y="0px"
	 viewBox="0 0 1080 1080" style="enable-background:new 0 0 1080 1080;" xml:space="preserve">
<style type="text/css">
	.st0{fill:url(#SVGID_1_);}
	.st1{fill:url(#SVGID_2_);}
</style>
<g>
	<linearGradient id="SVGID_1_" gradientUnits="userSpaceOnUse" x1="889.9438" y1="218.6613" x2="319.1746" y2="789.4307">
		<stop  offset="0" style="stop-color:#DB2AD0"/>
		<stop  offset="1" style="stop-color:#0EE2FA"/>
	</linearGradient>
	<path class="st0" d="M439.5,284.06c-4,40.71,12.51,77.75,40.41,102.02c50.66,44.07,53.02,121.3,16.51,175.01
		c-19.53,28.72-51.24,41.98-72.26,69.1c-24.13,31.13-36.63,70.2-35.28,109.54c0.22,6.5,0.81,12.99,1.75,19.43
		c10.96,75.7,73.45,135.19,149.54,143.03c101.61,10.47,187.35-68.97,187.35-168.44c0-34.01-10.36-67.61-29.61-95.66
		c-21.01-30.6-55.45-45.47-77.68-74.19c-16.85-21.78-26.14-49.04-26.14-76.58l0,0c0-85.4,69.87-155.27,155.27-155.27h5.86
		c35.15,0,68.49,12.55,97.61,32.23c12.93,8.73,28.47,13.88,45.24,13.99c43.93,0.3,81.36-35.72,82.69-79.63
		c1.4-46.53-35.91-84.7-82.12-84.7c-18.94,0-36.35,6.43-50.23,17.21c-25.84,20.08-58.65,29.01-91.38,29.01l-3.73,0
		c-41.98,0-81.05-18.43-110.67-48.19c-24.71-24.82-60.27-38.81-98.97-34.25C488.89,184.19,444.89,229.18,439.5,284.06z"/>
	<linearGradient id="SVGID_2_" gradientUnits="userSpaceOnUse" x1="706.4918" y1="35.2093" x2="135.7225" y2="605.9786">
		<stop  offset="0" style="stop-color:#DB2AD0"/>
		<stop  offset="1" style="stop-color:#0EE2FA"/>
	</linearGradient>
	<path class="st1" d="M99.28,479.37c1.82,47.17,41.23,85.99,88.42,87.15c32.32,0.79,60.88-15.33,77.55-40.14
		c11.72-17.45,30.78-28.54,51.8-28.54l10.44,0c14.22,0,27.4,6.09,38,15.57c10.46,9.36,24.85,14.41,40.42,12.34
		c22.46-2.98,40.64-21.55,43.21-44.06c3.47-30.51-20.3-56.36-50.1-56.36c-12.75,0-24.37,4.74-33.24,12.55
		c-11.38,10.02-25.84,15.82-41.01,15.82h-7.74c-20.76,0-39.94-10.62-51.38-27.94C249.42,401.21,221.62,385,189.99,385
		C138.66,385,97.28,427.6,99.28,479.37z"/>
</g>
</svg>
